<svg id="Layer_1" data-name="Layer 1" xmlns="http://www.w3.org/2000/svg" viewBox="0 0 246.76 140.05"><defs><style>.cls-1{fill:#cfff00;}.cls-2{fill:none;stroke:#ff2a00;stroke-miterlimit:10;stroke-width:2px;}</style></defs><path class="cls-1" d="M10.37,89.5l223.82,50.33c10.24,2.3,17.21-10.46,9.53-17.61a12,12,0,0,0-6.34-3.14A27,27,0,0,0,209.3,80c10-20.92,5.67-47.82-10.38-64.55-5.88-6.13-13.46-11-21.9-12S159.32,6.4,155.45,14C152.83,8.51,146.79,5.62,141,4c-9.62-2.7-20.43-3-29.17,1.87S97.32,21.67,100.66,31.09A28.37,28.37,0,0,0,57.9,55.22C50.28,53.61,42.34,52,34.79,53.91s-14.55,8.42-14.25,16.2A13.77,13.77,0,0,0,5.8,71.22,10.16,10.16,0,0,0,2.51,77,10.38,10.38,0,0,0,10.37,89.5" transform="translate(-1.23 -1.05)"/><path class="cls-2" d="M10.37,89.5l223.82,50.33c10.24,2.3,17.21-10.46,9.53-17.61a12,12,0,0,0-6.34-3.14A27,27,0,0,0,209.3,80c10-20.92,5.67-47.82-10.38-64.55-5.88-6.13-13.46-11-21.9-12S159.32,6.4,155.45,14C152.83,8.51,146.79,5.62,141,4c-9.62-2.7-20.43-3-29.17,1.87S97.32,21.67,100.66,31.09A28.37,28.37,0,0,0,57.9,55.22C50.28,53.61,42.34,52,34.79,53.91s-14.55,8.42-14.25,16.2A13.77,13.77,0,0,0,5.8,71.22,10.16,10.16,0,0,0,2.51,77,10.38,10.38,0,0,0,10.37,89.5Z" transform="translate(-1.23 -1.05)"/></svg>