<svg id="Layer_1" data-name="Layer 1" xmlns="http://www.w3.org/2000/svg" viewBox="0 0 121 121"><defs><style>.cls-1{fill:#cfff00;stroke:#ff1800;stroke-miterlimit:10;stroke-width:2px;}</style></defs><path class="cls-1" d="M2,2.5V9a31,31,0,0,1,16.58,9c2.93,3.1,5.21,8,2.69,11.45-1.37,1.88-3.75,2.68-5.62,4.07a10.45,10.45,0,0,0-2.82,12.92A4.59,4.59,0,0,0,15,48.58a5,5,0,0,0,2.33.19c4.52-.5,8.6-3.07,13.1-3.7,8.93-1.25,18,6.81,17.75,15.83a6.2,6.2,0,0,1-.76,3.17,5.66,5.66,0,0,1-2.9,2.2c-5.37,2.08-11.38-.61-17.12-.16a13.33,13.33,0,0,0-10,5.58c-2.44,3.68-2.52,8.48-1.57,12.8s3.08,8.83,6.85,11.35,9.41,2.52,12.43-.86c1.43-1.59,2.14-3.7,3.41-5.41,3.72-5,12.45-4.93,16.08.14,1.22,1.71,2.39,4.1,4.49,4s2.94-2.45,4-4.16a8.74,8.74,0,0,1,7.54-4.15,7.16,7.16,0,0,1,6.56,5.24,7.92,7.92,0,0,1-2.45,7.26,13.76,13.76,0,0,1-7.18,3.31c-2.57.46-5.48.58-7.29,2.47a6.52,6.52,0,0,0-1.59,3.24c-1.15,5.36,2.11,10.5,5.92,14.6H121V2.5Z" transform="translate(-1 -1.5)"/></svg>