<?xml version="1.0" encoding="utf-8"?>
<!-- Generator: Adobe Illustrator 24.3.0, SVG Export Plug-In . SVG Version: 6.00 Build 0)  -->
<svg version="1.1" id="Layer_1" xmlns="http://www.w3.org/2000/svg" xmlns:xlink="http://www.w3.org/1999/xlink" x="0px" y="0px"
	 viewBox="0 0 27 21" style="enable-background:new 0 0 27 21;" xml:space="preserve">
<style type="text/css">
	.st0{fill:#FF2A00;}
</style>
<path class="st0" d="M8.7,16.7c-0.1,0-0.3,0-0.4,0c-0.7,0-1.1-0.6-0.8-1.2c0.2-0.5,0.5-1,0.7-1.4c0-0.1,0.1-0.2,0-0.3
	c-0.5-2.1-0.9-4.3-1.4-6.4c-0.3-1.5-0.7-3.1-1-4.6c0-0.1-0.1-0.2-0.2-0.2c-0.9,0-1.7,0-2.6,0C2.4,2.5,2,2.2,2,1.7
	c0-0.4,0.3-0.8,0.7-0.9c0.1,0,0.2,0,0.3,0c1,0,2,0,3.1,0c1,0,1.1,0.4,1.3,1.1c0,0.2,0.1,0.4,0.1,0.6c0,0.1,0.1,0.1,0.2,0.1
	c0.1,0,0.1,0,0.2,0c5.4,0,10.7,0,16.1,0c0.2,0,0.4,0,0.6,0.1C24.8,2.9,25,3.1,25,3.4c0,2.4,0,4.7,0,7.1c0,0.5-0.3,0.8-0.9,0.9
	c-2,0.2-4.1,0.5-6.1,0.7c-2.2,0.3-4.5,0.5-6.7,0.8c-0.5,0.1-1,0.1-1.5,0.2c0.1,0.3,0.2,0.6,0.1,0.9c0,0.3-0.2,0.6-0.3,0.9h0.2
	c4.1,0,8.2,0,12.3,0c0.2,0,0.4,0,0.6,0.1c0.3,0.2,0.5,0.6,0.4,1c-0.1,0.4-0.4,0.6-0.8,0.7c-0.2,0-0.4,0-0.5,0c0.6,0.2,1,0.5,1.2,1.1
	c0.2,0.4,0.2,0.7,0.1,1.1c-0.2,0.8-0.9,1.4-1.7,1.3c-0.8,0-1.5-0.6-1.7-1.4c-0.1-0.3-0.1-0.6,0-0.9c0.1-0.3,0.3-0.6,0.5-0.8
	c0.2-0.2,0.5-0.3,0.7-0.5H9.5c0.5,0.2,0.9,0.5,1.2,0.9c0.3,0.5,0.3,1,0.1,1.5c-0.3,0.7-1,1.2-1.8,1.1c-0.8-0.1-1.5-0.8-1.6-1.4
	C7.2,18.1,7.5,17.1,8.7,16.7"/>
</svg>
