<svg id="Layer_1" data-name="Layer 1" xmlns="http://www.w3.org/2000/svg" viewBox="0 0 77.23 68.7"><defs><style>.cls-1{fill:#ff2a00;}</style></defs><path class="cls-1" d="M19.88,68.75C9.06,68.75.25,53.34.25,34.4S9.06.05,19.88.05,39.51,15.46,39.51,34.4s-8.8,34.35-19.63,34.35m0-66.9c-9.83,0-17.83,14.6-17.83,32.55S10.05,67,19.88,67,37.71,52.35,37.71,34.4s-8-32.55-17.83-32.55" transform="translate(-0.25 -0.05)"/><path class="cls-1" d="M20.18,27.26a29.11,29.11,0,0,1,1.55,9.63c0,10-4.54,18.14-10.15,18.14S1.43,46.91,1.43,36.89,6,18.76,11.58,18.76A7,7,0,0,1,16.49,21L11.58,36.89Z" transform="translate(-0.25 -0.05)"/><path class="cls-1" d="M58.16,27.26a29.37,29.37,0,0,1,1.55,9.63c0,10-4.55,18.14-10.16,18.14S39.4,46.91,39.4,36.89s4.54-18.13,10.15-18.13A7,7,0,0,1,54.46,21L49.55,36.89Z" transform="translate(-0.25 -0.05)"/><path class="cls-1" d="M57.85,68.75C47,68.75,38.21,53.34,38.21,34.4S47,.05,57.85.05,77.48,15.46,77.48,34.4,68.67,68.75,57.85,68.75m0-66.9C48,1.85,40,16.45,40,34.4S48,67,57.85,67,75.68,52.35,75.68,34.4s-8-32.55-17.83-32.55" transform="translate(-0.25 -0.05)"/></svg>